<?xml version="1.0" standalone="no"?>
<!DOCTYPE svg PUBLIC "-//W3C//DTD SVG 20010904//EN"
 "http://www.w3.org/TR/2001/REC-SVG-20010904/DTD/svg10.dtd">
<svg version="1.0" xmlns="http://www.w3.org/2000/svg"
 width="349.000000pt" height="349.000000pt" viewBox="0 0 349.000000 349.000000"
 preserveAspectRatio="xMidYMid meet">
<metadata>
Created by potrace 1.11, written by Peter Selinger 2001-2013
</metadata>
<g transform="translate(0.000000,349.000000) scale(0.100000,-0.100000)"
fill="#000000" stroke="none">
<path d="M0 2635 l0 -845 465 0 465 0 5 28 c37 173 152 315 336 416 355 194
867 133 1126 -135 28 -30 61 -66 73 -81 28 -36 66 -122 81 -180 l11 -48 464 0
464 0 0 845 0 845 -1745 0 -1745 0 0 -845z"/>
<path d="M1640 2220 c-246 -25 -464 -153 -552 -324 -11 -22 -27 -76 -34 -120
-9 -51 -20 -86 -31 -93 -13 -10 -133 -13 -520 -13 l-503 0 0 -60 0 -60 1745 0
1745 0 0 60 0 60 -509 0 c-427 0 -512 2 -524 14 -8 8 -17 45 -20 83 -17 180
-188 348 -429 422 -58 17 -246 44 -282 40 -6 -1 -45 -5 -86 -9z"/>
<path d="M0 715 l0 -715 1745 0 1745 0 0 715 0 715 -1745 0 -1745 0 0 -715z"/>
</g>
</svg>
