<?xml version="1.0" encoding="utf-8"?>
<!-- Generator: Adobe Illustrator 16.0.0, SVG Export Plug-In . SVG Version: 6.00 Build 0)  -->
<!DOCTYPE svg PUBLIC "-//W3C//DTD SVG 1.1//EN" "http://www.w3.org/Graphics/SVG/1.1/DTD/svg11.dtd">
<svg version="1.1" id="Layer_1" xmlns="http://www.w3.org/2000/svg" xmlns:xlink="http://www.w3.org/1999/xlink" x="0px" y="0px"
	 width="364px" height="133px" viewBox="0 0 364 133" enable-background="new 0 0 364 133" xml:space="preserve">
<g>
	<path fill="none" stroke="#000000" stroke-width="2" stroke-linecap="round" stroke-linejoin="round" stroke-miterlimit="10" d="
		M357.1,61.5c-1.4-0.1-2.8-0.4-4.1-0.4c-30.5,0-61,0-91.5,0c-1.3,0-2.5,0-4.1,0c0.6-10.9-3.6-20.1-9.9-28
		c-7.1-8.9-16.3-15.4-26.8-20c-13.2-5.8-27-8.1-41.3-7.8c-19.1,0.4-36.8,5.5-52,17c-10.1,7.6-17.9,17.6-20.3,30.6
		c-0.5,2.7-0.7,5.5-1.1,8.2c-32.8,0-65.6,0-98.3,0"/>
	
		<path fill-rule="evenodd" clip-rule="evenodd" fill="none" stroke="#000000" stroke-width="2" stroke-linecap="round" stroke-linejoin="round" stroke-miterlimit="10" d="
		M356.4,71.2c-116.2,0-232.5,0-348.8,0"/>
	
		<path fill-rule="evenodd" clip-rule="evenodd" fill="none" stroke="#000000" stroke-width="2" stroke-linecap="round" stroke-linejoin="round" stroke-miterlimit="10" d="
		M312.1,96.4c-2.1-0.9-4.3-1.7-6.4-2.6c-9.2-3.8-20.1,2.1-22.9,11.3c-2.8,9.1,2.1,16.7,6.7,19.9c6.2,4.3,16.1,4.3,21.8-1.5
		c0-3,0-6.4,0-9.7"/>
	
		<path fill-rule="evenodd" clip-rule="evenodd" fill="none" stroke="#000000" stroke-width="2" stroke-linecap="round" stroke-linejoin="round" stroke-miterlimit="10" d="
		M356.4,96c-2.1-2.6-4.8-4-8.7-3.8c-1.4,1.4-2.7,2.8-3.6,3.7c-0.8,6,0.1,7.9,4.4,10.2c2.1,1.2,4.3,2.1,6.4,3.4
		c3.9,2.5,6,6.8,5.3,10.5c-0.7,3.6-4.3,7.6-7.5,7.8c-5.7,0.4-7.6,0.1-11.2-5.6c-0.3-0.5-0.5-1-0.8-1.5"/>
	
		<path fill-rule="evenodd" clip-rule="evenodd" fill="none" stroke="#000000" stroke-width="2" stroke-linecap="round" stroke-linejoin="round" stroke-miterlimit="10" d="
		M105.9,93.8c0,10.4,0,20.8,0,31.1c0,1.2-0.2,2.5-0.4,3.8"/>
	
		<path fill-rule="evenodd" clip-rule="evenodd" fill="none" stroke="#000000" stroke-width="2" stroke-linecap="round" stroke-linejoin="round" stroke-miterlimit="10" d="
		M90.5,92.6c0,10.4,0,20.8,0,31.1c0,1.2-0.2,2.5-0.4,3.8"/>
	
		<path fill-rule="evenodd" clip-rule="evenodd" fill="none" stroke="#000000" stroke-width="2" stroke-linecap="round" stroke-linejoin="round" stroke-miterlimit="10" d="
		M335.4,92.6c-4.9,0.1-9.8,0.2-14.6,0.4c-0.9,0-1.8,0.2-2.4,0.3c0,11.4,0,22.8,0,34.2c5.8,0,11.4,0,17.1,0"/>
	
		<path fill-rule="evenodd" clip-rule="evenodd" fill="none" stroke="#000000" stroke-width="2" stroke-linecap="round" stroke-linejoin="round" stroke-miterlimit="10" d="
		M53.4,93c-5.8,0-11.5,0-17.1,0c0,11.8,0,23.1,0,34.5c5.8,0,11.4,0,17.1,0"/>
	
		<path fill-rule="evenodd" clip-rule="evenodd" fill="none" stroke="#000000" stroke-width="2" stroke-linecap="round" stroke-linejoin="round" stroke-miterlimit="10" d="
		M27.1,94.1c-0.5,1.1-0.9,2.3-1.5,3.4c-5.7,10.1-11.5,20.3-17.2,30.4"/>
	
		<path fill-rule="evenodd" clip-rule="evenodd" fill="none" stroke="#000000" stroke-width="2" stroke-linecap="round" stroke-linejoin="round" stroke-miterlimit="10" d="
		M159.9,93.4c3.5,9.5,7,19,10.5,28.5c0.3,0.9,1,1.8,1.5,2.6"/>
	
		<path fill-rule="evenodd" clip-rule="evenodd" fill="none" stroke="#000000" stroke-width="2" stroke-linecap="round" stroke-linejoin="round" stroke-miterlimit="10" d="
		M183.9,93.4c-3.2,9.2-6.4,18.5-9.8,27.7c-0.9,2.5-2.7,4.6-2.2,7.5"/>
	
		<path fill-rule="evenodd" clip-rule="evenodd" fill="none" stroke="#000000" stroke-width="2" stroke-linecap="round" stroke-linejoin="round" stroke-miterlimit="10" d="
		M60.5,97.1c-0.1,3.6-0.3,7.2-0.4,10.9c-0.1,6.6,0,13.2,0,19.9"/>
	
		<path fill-rule="evenodd" clip-rule="evenodd" fill="none" stroke="#000000" stroke-width="2" stroke-linecap="round" stroke-linejoin="round" stroke-miterlimit="10" d="
		M82.6,93.4c0,8.9,0,17.8,0,26.6c0,1.3-0.5,2.5-0.7,3.8"/>
	
		<path fill-rule="evenodd" clip-rule="evenodd" fill="none" stroke="#000000" stroke-width="2" stroke-linecap="round" stroke-linejoin="round" stroke-miterlimit="10" d="
		M59.4,91.9c0.2,4.8,4.1,7.4,6.5,10.8c5,7.4,10.7,14.3,16,21.5c0.9,1.2,1.1,3,1.6,4.5"/>
	
		<path fill-rule="evenodd" clip-rule="evenodd" fill="none" stroke="#000000" stroke-width="2" stroke-linecap="round" stroke-linejoin="round" stroke-miterlimit="10" d="
		M228.1,92.6c1.2,1.5,2.7,2.9,3.7,4.5c3.2,5.1,6.3,10.4,9.4,15.5"/>
	
		<path fill-rule="evenodd" clip-rule="evenodd" fill="none" stroke="#000000" stroke-width="2" stroke-linecap="round" stroke-linejoin="round" stroke-miterlimit="10" d="
		M254.4,92.6c-2,2.9-4.1,5.7-6,8.6c-2.5,3.9-4.7,8-7.2,12.2c0,4.9,0,10,0,15.1"/>
	
		<path fill-rule="evenodd" clip-rule="evenodd" fill="none" stroke="#000000" stroke-width="2" stroke-linecap="round" stroke-linejoin="round" stroke-miterlimit="10" d="
		M9.5,127.5c6.9,0,13.8,0,20.6,0"/>
	
		<path fill-rule="evenodd" clip-rule="evenodd" fill="none" stroke="#000000" stroke-width="2" stroke-linecap="round" stroke-linejoin="round" stroke-miterlimit="10" d="
		M264.9,96.8c2,4.8,4.1,9.5,6,14.3c2.1,5.6,4,11.2,6,16.9"/>
	
		<path fill-rule="evenodd" clip-rule="evenodd" fill="none" stroke="#000000" stroke-width="2" stroke-linecap="round" stroke-linejoin="round" stroke-miterlimit="10" d="
		M120.1,93.4c0,10.5,0,21,0,31.5c0,1.2,0.2,2.5,0.4,3.8"/>
	
		<path fill-rule="evenodd" clip-rule="evenodd" fill="none" stroke="#000000" stroke-width="2" stroke-linecap="round" stroke-linejoin="round" stroke-miterlimit="10" d="
		M141.1,93.4c0,10.5,0,21,0,31.5c0,1.2-0.2,2.5-0.4,3.8"/>
	
		<path fill-rule="evenodd" clip-rule="evenodd" fill="none" stroke="#000000" stroke-width="2" stroke-linecap="round" stroke-linejoin="round" stroke-miterlimit="10" d="
		M264.9,92.6c-0.5,1.9-0.9,3.8-1.5,5.6c-1.7,4.9-3.5,9.8-5.2,14.6c-0.1,0.3,0.2,0.7,0.3,1.1"/>
	
		<path fill-rule="evenodd" clip-rule="evenodd" fill="none" stroke="#000000" stroke-width="2" stroke-linecap="round" stroke-linejoin="round" stroke-miterlimit="10" d="
		M120.9,110.6c6.5,0,13,0,19.5,0"/>
	
		<path fill-rule="evenodd" clip-rule="evenodd" fill="none" stroke="#000000" stroke-width="2" stroke-linecap="round" stroke-linejoin="round" stroke-miterlimit="10" d="
		M52.2,110.6c-5.1,0-10.2,0-15.4,0"/>
	
		<path fill-rule="evenodd" clip-rule="evenodd" fill="none" stroke="#000000" stroke-width="2" stroke-linecap="round" stroke-linejoin="round" stroke-miterlimit="10" d="
		M318.9,110.2c5.5,0,11,0,16.5,0"/>
	
		<path fill-rule="evenodd" clip-rule="evenodd" fill="none" stroke="#000000" stroke-width="2" stroke-linecap="round" stroke-linejoin="round" stroke-miterlimit="10" d="
		M270.5,114c-4.1,0.2-8.2,0.4-12.8,0.6c-1.6,4.5-3.4,9.2-5.2,14"/>
	
		<path fill-rule="evenodd" clip-rule="evenodd" fill="none" stroke="#000000" stroke-width="2" stroke-linecap="round" stroke-linejoin="round" stroke-miterlimit="10" d="
		M114.9,93.4c-6,0-12,0-18,0"/>
	
		<path fill-rule="evenodd" clip-rule="evenodd" fill="none" stroke="#000000" stroke-width="2" stroke-linecap="round" stroke-linejoin="round" stroke-miterlimit="10" d="
		M8.4,93.4c6.2,0.1,12.5,0.3,18.8,0.3c0.7,0,1.5-0.5,2.2-0.7"/>
	
		<path fill-rule="evenodd" clip-rule="evenodd" fill="none" stroke="#000000" stroke-width="2" stroke-linecap="round" stroke-linejoin="round" stroke-miterlimit="10" d="
		M203.8,92.6c-7.2,1.7-12.3,5.9-14.2,13.1c-2.9,11.5,5.2,21.5,16.1,22.2c10.6,0.7,18.6-8,18.7-17.4c0.1-11-8.9-18.3-17.6-18
		c-0.9,0-1.8,0-2.6,0"/>
</g>
</svg>
